<svg width="16" height="16" viewBox="0 0 16 16" fill="none" xmlns="http://www.w3.org/2000/svg">
<path d="M6.06 5.99967C6.21673 5.55412 6.5261 5.17841 6.9333 4.9391C7.3405 4.69978 7.81926 4.6123 8.28478 4.69215C8.7503 4.772 9.17254 5.01402 9.47671 5.37536C9.78089 5.7367 9.94737 6.19402 9.94666 6.66634C9.94666 7.99967 7.94666 8.66634 7.94666 8.66634M8 11.333H8.00666M14.6667 7.99967C14.6667 11.6816 11.6819 14.6663 8 14.6663C4.3181 14.6663 1.33333 11.6816 1.33333 7.99967C1.33333 4.31778 4.3181 1.33301 8 1.33301C11.6819 1.33301 14.6667 4.31778 14.6667 7.99967Z" stroke="#F2F4F7" stroke-width="1.5" stroke-linecap="round" stroke-linejoin="round"/>
</svg>
