<svg width="16" height="16" viewBox="0 0 16 16" fill="none" xmlns="http://www.w3.org/2000/svg">
<path d="M14.5 2.51563H10.925C10.1578 2.51563 9.40781 2.73594 8.7625 3.15156L8 3.64063L7.2375 3.15156C6.59283 2.73602 5.84199 2.51522 5.075 2.51563H1.5C1.22344 2.51563 1 2.73906 1 3.01563V11.8906C1 12.1672 1.22344 12.3906 1.5 12.3906H5.075C5.84219 12.3906 6.59219 12.6109 7.2375 13.0266L7.93125 13.4734C7.95156 13.4859 7.975 13.4938 7.99844 13.4938C8.02187 13.4938 8.04531 13.4875 8.06563 13.4734L8.75937 13.0266C9.40625 12.6109 10.1578 12.3906 10.925 12.3906H14.5C14.7766 12.3906 15 12.1672 15 11.8906V3.01563C15 2.73906 14.7766 2.51563 14.5 2.51563ZM5.075 11.2656H2.125V3.64063H5.075C5.62812 3.64063 6.16562 3.79844 6.62969 4.09688L7.39219 4.58594L7.5 4.65625V11.875C6.75625 11.475 5.925 11.2656 5.075 11.2656ZM13.875 11.2656H10.925C10.075 11.2656 9.24375 11.475 8.5 11.875V4.65625L8.60781 4.58594L9.37031 4.09688C9.83438 3.79844 10.3719 3.64063 10.925 3.64063H13.875V11.2656ZM6.20156 5.64063H3.29844C3.2375 5.64063 3.1875 5.69375 3.1875 5.75781V6.46094C3.1875 6.525 3.2375 6.57813 3.29844 6.57813H6.2C6.26094 6.57813 6.31094 6.525 6.31094 6.46094V5.75781C6.3125 5.69375 6.2625 5.64063 6.20156 5.64063ZM9.6875 5.75781V6.46094C9.6875 6.525 9.7375 6.57813 9.79844 6.57813H12.7C12.7609 6.57813 12.8109 6.525 12.8109 6.46094V5.75781C12.8109 5.69375 12.7609 5.64063 12.7 5.64063H9.79844C9.7375 5.64063 9.6875 5.69375 9.6875 5.75781ZM6.20156 7.82813H3.29844C3.2375 7.82813 3.1875 7.88125 3.1875 7.94531V8.64844C3.1875 8.7125 3.2375 8.76563 3.29844 8.76563H6.2C6.26094 8.76563 6.31094 8.7125 6.31094 8.64844V7.94531C6.3125 7.88125 6.2625 7.82813 6.20156 7.82813ZM12.7016 7.82813H9.79844C9.7375 7.82813 9.6875 7.88125 9.6875 7.94531V8.64844C9.6875 8.7125 9.7375 8.76563 9.79844 8.76563H12.7C12.7609 8.76563 12.8109 8.7125 12.8109 8.64844V7.94531C12.8125 7.88125 12.7625 7.82813 12.7016 7.82813Z" fill="white"/>
</svg>
